<svg xmlns="http://www.w3.org/2000/svg" viewBox="0 0 105.11 104.59"><defs><style>.cls-1{fill:#e4d7d0;}</style></defs><g id="Layer_2" data-name="Layer 2"><g id="Layer_1-2" data-name="Layer 1"><path class="cls-1" d="M45.15,104.59a52.51,52.51,0,0,1-14.37-4.2L45.7,67.63a16.38,16.38,0,0,0,4.5,1.31Zm14.9,0L55,68.94a16.73,16.73,0,0,0,4.48-1.32l15,32.72A52,52,0,0,1,60.05,104.57ZM18.19,92.32A52.91,52.91,0,0,1,8.4,81.05L38.63,61.51a16.86,16.86,0,0,0,3.11,3.58ZM87,92.25,63.4,65.06a16.57,16.57,0,0,0,3.1-3.58L96.77,81A52.64,52.64,0,0,1,87,92.25ZM2.14,67.44A52.57,52.57,0,0,1,0,52.66l36-.08a16.7,16.7,0,0,0,.67,4.68ZM103,67.34,68.45,57.22a16.57,16.57,0,0,0,.66-4.67v-.14h36v.14A52.31,52.31,0,0,1,103,67.34ZM36.65,47.91l-34.57-10a52.35,52.35,0,0,1,6.2-13.64L38.59,43.65A16.55,16.55,0,0,0,36.65,47.91Zm31.78-.09a16.42,16.42,0,0,0-2-4.25L96.66,24a52.51,52.51,0,0,1,6.28,13.6ZM41.69,40.06,18,12.93A52.54,52.54,0,0,1,30.58,4.8L45.64,37.5A16.52,16.52,0,0,0,41.69,40.06ZM63.35,40a16.45,16.45,0,0,0-4-2.54L74.24,4.67a52.42,52.42,0,0,1,12.6,8.05ZM50.12,36.17,45,.55A53.12,53.12,0,0,1,59.85.5l-5,35.66A17.25,17.25,0,0,0,50.12,36.17Z"/></g></g></svg>