<svg xmlns="http://www.w3.org/2000/svg" viewBox="0 0 265.62 264.92"><defs><style>.cls-1{fill:#e4d7d0;}</style></defs><g id="Layer_2" data-name="Layer 2"><g id="Layer_1-2" data-name="Layer 1"><path class="cls-1" d="M146.47,264.92,132.93,133.23l.12.37h0L173.68,259.2A132.81,132.81,0,0,1,146.47,264.92Zm-27.59,0a132.76,132.76,0,0,1-27.19-5.79l40.85-125.52h0l.13-.4Zm80.23-17L133.18,133.56l.1-.05-.2-.35,88.49,98.45A133,133,0,0,1,199.11,247.9Zm-132.83-.13a133.41,133.41,0,0,1-22.41-16.33l88.65-98.26-.19.32.12.06Zm173.83-36.68L133.23,133l.32.15,0-.06,120.48,53.93A133.71,133.71,0,0,1,240.11,211.09Zm-214.75-.22a133.08,133.08,0,0,1-13.89-24l120.39-53.65-129,27.16A133.84,133.84,0,0,1,0,132.81v-.27H132L3,104.77a133,133,0,0,1,8.71-26.49L132.1,132.54h.14l.23.1-.28-.07.45.21-.12,0-.54-.12a.59.59,0,0,0,0,.13h.48l-.46.1a1.06,1.06,0,0,0,.06.19l.61-.28h.08l0,0h0l-.14.1.15-.06,0,.06.07-.08v.08l-.19.13,0,0-.22,0Zm106.69-77.72h0l.05,0Zm130.64,27.47L133.61,133a.83.83,0,0,0,0-.15l-.18,0-.36.07,0,0h-.07l-.18-.09v0l0,0,0,0v0h0l0,0h0l0,.05,0,.06,0,0,0,.06-.05.53-.06-.56h0v0h0l0-.08h0v-.06h0l0,0h.11l0,0v0l.1,0-.06,0h.43l-.37-.08-.08.06h0v0h0l0,0v0h0v-.13h0v0h0l.07-.22-.06.22.05-.06v.06l.13,0,0,0h.06l.3-.34,0,0L222,34.35A133.33,133.33,0,0,1,240.42,55l-106.9,77.4-.05-.09-.36.27h.17l-.06,0,.25,0L254.28,79.06a132.58,132.58,0,0,1,8.53,26.48l-129.15,27v.24l-.08,0,132,.25A132.52,132.52,0,0,1,262.69,160.62ZM132.9,132.77v0l.09,0-.06,0Zm0,0v0Zm.16,0-.08.06.16-.08Zm-.14,0Zm.06-.1-.05.09h0l.13-.15Zm0,.56-.05-.17Zm-.28,0,0-.11Zm.4-.09L133,133h0l0-.06h0v0l.08.06h0Zm-.42,0,.06-.07Zm.25-.05h0Zm-.18-.16h0v0h0v0h0l-.09-.15-.11-.07h.06l0,0,0,0h.11l0-.2.08.2v0l0,.11,0-.07v.1h0v.1h0Zm0,0h0Zm-.06,0-.15-.11.19.1Zm0-.1-.14,0-.14-.1h.16Zm-.15-.16-.33-.24,0,.08-106.43-78A133.31,133.31,0,0,1,44.27,33.82l88,98.34-.05,0Zm.2,0L66.74,17.58A133.4,133.4,0,0,1,92.19,6.34Zm.25,0L174.21,6.59A133.14,133.14,0,0,1,199.59,18Zm-.13-.36V132l-.14,0L119.41.67A134.71,134.71,0,0,1,147,.75L133,132l-.16,0Z"/></g></g></svg>