<svg width="130" height="220" viewBox="0 0 130 220" fill="none" xmlns="http://www.w3.org/2000/svg">
<path d="M130 57.4C130 49.8621 128.489 42.398 125.554 35.434C122.618 28.4699 118.315 22.1421 112.891 16.8121C107.467 11.482 101.028 7.25393 93.941 4.36931C86.854 1.48469 79.2583 0 71.5875 0V0V220C87.0794 220 101.937 213.952 112.891 203.188C123.846 192.423 130 177.823 130 162.6C130.001 151.437 126.69 140.515 120.472 131.172C114.253 121.83 105.397 114.472 94.988 110C105.397 105.528 114.253 98.17 120.472 88.8276C126.69 79.4851 130.001 68.5635 130 57.4Z" fill="#55423D"/>
<path d="M4.75792e-07 162.6C0.00224121 177.823 6.15712 192.421 17.1111 203.185C28.0651 213.95 42.9213 219.998 58.4125 220L58.4125 0C42.9213 0.00220189 28.0651 6.05039 17.1111 16.8145C6.15712 27.5786 0.00224121 42.1772 4.75792e-07 57.4C-0.0014492 68.5635 3.30986 79.4851 9.52846 88.8276C15.7471 98.17 24.6031 105.528 35.012 110C24.6031 114.472 15.7471 121.83 9.52846 131.172C3.30986 140.515 -0.0014492 151.437 4.75792e-07 162.6Z" fill="#55423D"/>
</svg>
