<svg width="130" height="220" viewBox="0 0 130 220" fill="none" xmlns="http://www.w3.org/2000/svg">
<path d="M58.4125 0L58.4125 220C42.9206 220 28.0631 213.952 17.1086 203.188C6.15416 192.423 0 177.823 0 162.6L0 57.4C0 42.1766 6.15416 27.5766 17.1086 16.8121C28.0631 6.04748 42.9206 0 58.4125 0V0Z" fill="#55423D"/>
<path d="M71.5875 220L71.5875 0C87.0795 0 101.937 6.0475 112.891 16.8121C123.846 27.5767 130 42.1766 130 57.4L130 162.6C130 177.823 123.846 192.423 112.891 203.188C101.937 213.953 87.0795 220 71.5875 220V220Z" fill="#55423D"/>
</svg>
