<svg xmlns="http://www.w3.org/2000/svg" viewBox="0 0 153.83 264.92"><defs><style>.cls-1{fill:#e4d7d0;}</style></defs><g id="Layer_2" data-name="Layer 2"><g id="Layer_1-2" data-name="Layer 1"><path class="cls-1" d="M153.83,69.12h0A69.12,69.12,0,0,0,84.71,0h0V264.92h0a69.12,69.12,0,0,0,69.12-69.12h0a69.12,69.12,0,0,0-41.43-63.34A69.12,69.12,0,0,0,153.83,69.12Z"/><path class="cls-1" d="M0,195.8H0a69.13,69.13,0,0,0,69.12,69.12h0V0h0A69.13,69.13,0,0,0,0,69.12H0a69.12,69.12,0,0,0,41.43,63.34A69.12,69.12,0,0,0,0,195.8Z"/></g></g></svg>