<svg xmlns="http://www.w3.org/2000/svg" viewBox="0 0 153.83 264.92"><defs><style>.cls-1{fill:#e4d7d0;}</style></defs><g id="Layer_2" data-name="Layer 2"><g id="Layer_1-2" data-name="Layer 1"><path class="cls-1" d="M69.12,0h0a0,0,0,0,1,0,0V264.92a0,0,0,0,1,0,0h0A69.12,69.12,0,0,1,0,195.8V69.12A69.12,69.12,0,0,1,69.12,0Z"/><path class="cls-1" d="M153.83,0h0a0,0,0,0,1,0,0V264.92a0,0,0,0,1,0,0h0A69.12,69.12,0,0,1,84.71,195.8V69.12A69.12,69.12,0,0,1,153.83,0Z" transform="translate(238.54 264.92) rotate(-180)"/></g></g></svg>