<svg width="230" height="230" viewBox="0 0 230 230" fill="none" xmlns="http://www.w3.org/2000/svg">
<path d="M126.847 230L115.121 115.668L115.225 115.989L150.412 225.034C142.752 227.511 134.854 229.176 126.847 230ZM102.954 230C94.9506 229.155 87.0582 227.47 79.4062 224.973L114.783 115.998L114.896 115.651L102.954 230ZM172.435 215.241L115.338 115.954L115.424 115.911L115.251 115.607L191.886 201.081C185.912 206.462 179.393 211.202 172.435 215.223V215.241ZM57.4004 215.128C50.4575 211.091 43.9532 206.339 37.9927 200.95L114.766 115.642L114.602 115.92L114.706 115.972L57.4004 215.128ZM207.942 183.283L115.381 115.468L115.658 115.598V115.546L219.997 162.368C216.714 169.735 212.674 176.738 207.942 183.265V183.283ZM21.9625 183.092C17.24 176.585 13.2084 169.602 9.93337 162.255L114.195 115.677L2.47686 139.257C0.82593 131.38 -0.00414062 123.352 1.55298e-05 115.303V115.069H114.316L2.5981 90.9593C4.30166 83.0493 6.82993 75.3409 10.1412 67.9609L114.402 115.069H114.524L114.723 115.156L114.48 115.095L114.87 115.277H114.766L114.299 115.173C114.294 115.211 114.294 115.248 114.299 115.286H114.714L114.316 115.373C114.328 115.429 114.345 115.485 114.368 115.538L114.896 115.295H114.965L114.844 115.381L114.974 115.329V115.381L115.035 115.312V115.381L114.87 115.494H114.68L21.9625 183.092ZM114.359 115.616H114.402H114.359ZM227.497 139.465L115.71 115.468C115.714 115.425 115.714 115.381 115.71 115.338H115.554L115.243 115.399H115.182L115.026 115.321V115.364V115.416V115.468L114.983 115.928L114.931 115.442V115.373V115.321H115.026H115.113H115.061H115.433L115.113 115.251L115.043 115.303V115.19L115.104 114.999L115.052 115.19L115.095 115.138V115.19H115.208H115.26L115.52 114.895L192.258 29.8213C198.182 35.2265 203.528 41.2349 208.211 47.7494L115.632 114.947L115.589 114.869L115.277 115.104H115.424H115.372H115.589L220.214 68.6381C223.474 76.0204 225.95 83.726 227.601 91.6278L115.753 115.069V115.277H115.684L230 115.494C230.004 123.545 229.165 131.573 227.497 139.448V139.465ZM115.095 115.269H115.173H115.121H115.095ZM115.234 115.269L115.165 115.321L115.303 115.251L115.234 115.269ZM115.165 115.182L115.121 115.26L115.234 115.13L115.165 115.182ZM115.165 115.668L115.121 115.52L115.165 115.668ZM114.922 115.668V115.572V115.668ZM115.268 115.59L115.182 115.468V115.416L115.251 115.468L115.268 115.59ZM114.905 115.59L114.957 115.529L114.905 115.59ZM114.965 115.407L114.887 115.277L114.792 115.217H114.844H114.939V115.043L115.009 115.217V115.312V115.251V115.338V115.425L114.965 115.407ZM114.913 115.407L114.783 115.312L114.948 115.399L114.913 115.407ZM114.913 115.321H114.792L114.671 115.234H114.809L114.913 115.321ZM114.783 115.182L114.498 114.973V115.043L22.3262 47.324C27.026 40.7943 32.3927 34.7741 38.3391 29.3611L114.55 114.739H114.506L114.783 115.182ZM114.957 115.182L57.7988 15.2617C64.7862 11.2477 72.1732 7.97706 79.8392 5.50326L114.957 115.182ZM115.173 115.182L150.871 5.72031C158.523 8.2436 165.889 11.5637 172.851 15.6264L115.173 115.182ZM115.061 114.869V114.6H114.939L103.413 0.58062C111.359 -0.216097 119.365 -0.192824 127.306 0.650075L115.182 114.6H115.043L115.061 114.869Z" fill="#5FA09B"/>
</svg>
