<svg width="255" height="253" viewBox="0 0 255 253" fill="none" xmlns="http://www.w3.org/2000/svg">
<path d="M109.535 253C97.4875 251.291 85.7475 247.87 74.6732 242.84L110.869 163.592C114.337 165.165 118.014 166.232 121.787 166.761L109.535 253ZM145.683 253L133.432 166.761C137.186 166.209 140.845 165.134 144.3 163.568L180.691 242.719C169.58 247.803 157.788 251.25 145.683 252.952V253ZM44.1295 223.318C34.9601 215.396 26.9636 206.217 20.3786 196.056L93.7175 148.788C95.8107 152.014 98.3508 154.93 101.262 157.448L44.1295 223.318ZM211.064 223.149L153.81 157.375C156.72 154.862 159.253 151.946 161.331 148.715L234.767 195.935C228.2 206.081 220.219 215.244 211.064 223.149V223.149ZM5.1917 163.133C1.7636 151.522 0.0153992 139.483 0 127.379L87.337 127.186C87.3377 131.017 87.885 134.829 88.9625 138.507L5.1917 163.133ZM249.881 162.891L166.062 138.41C167.133 134.74 167.672 130.935 167.663 127.113V126.774H255V127.113C255.019 139.222 253.295 151.27 249.881 162.891ZM88.9139 115.889L5.04614 91.6982C8.44735 80.0374 13.513 68.925 20.0875 58.7024L93.6204 105.583C91.5699 108.779 89.9852 112.249 88.9139 115.889V115.889ZM166.013 115.671C164.898 112.03 163.264 108.567 161.161 105.39L234.5 58.0493C241.129 68.2332 246.26 79.3123 249.735 90.9483L166.013 115.671ZM101.141 96.8991L43.6685 31.2705C52.8475 23.2951 63.125 16.6723 74.1879 11.6036L110.724 90.7064C107.25 92.304 104.023 94.3894 101.141 96.8991V96.8991ZM153.689 96.754C150.769 94.2496 147.5 92.18 143.985 90.6096L180.108 11.2892C191.178 16.2905 201.472 22.8483 210.676 30.7625L153.689 96.754ZM121.593 87.489L109.171 1.32271C121.115 -0.399415 133.243 -0.44013 145.198 1.20175L133.068 87.4649C129.26 86.9475 125.398 86.9556 121.593 87.489Z" fill="#55423D"/>
</svg>
