<svg width="210" height="220" viewBox="0 0 210 220" fill="none" xmlns="http://www.w3.org/2000/svg">
<path d="M166.478 110.004L207.81 138.272C208.704 138.885 209.375 139.77 209.724 140.795C210.073 141.82 210.081 142.931 209.746 143.961C209.411 144.991 208.753 145.885 207.868 146.51C206.983 147.135 205.919 147.458 204.836 147.429L154.744 146.041L171.553 193.257C171.919 194.278 171.945 195.39 171.625 196.426C171.305 197.463 170.657 198.368 169.779 199.005C168.901 199.642 167.839 199.977 166.754 199.96C165.669 199.943 164.619 199.575 163.761 198.911L124.049 168.373L109.889 216.402C109.582 217.441 108.947 218.353 108.079 219.001C107.21 219.65 106.155 220 105.072 220C103.988 220 102.933 219.65 102.065 219.001C101.196 218.353 100.561 217.441 100.254 216.402L86.0942 168.373L46.4079 198.911C45.549 199.572 44.4991 199.938 43.4149 199.954C42.3308 199.969 41.2706 199.634 40.3929 198.998C39.5152 198.362 38.867 197.459 38.5453 196.424C38.2235 195.389 38.2454 194.278 38.6078 193.257L55.408 146.076L5.26444 147.463C4.18116 147.492 3.11767 147.17 2.23272 146.545C1.34778 145.92 0.688842 145.025 0.354268 143.995C0.0196945 142.965 0.0274303 141.855 0.376321 140.829C0.725211 139.804 1.39654 138.919 2.29011 138.306L43.6307 110.039L2.29011 81.7709C1.36366 81.1705 0.660975 80.2818 0.290754 79.2422C-0.0794671 78.2026 -0.0965947 77.0701 0.242021 76.0198C0.580636 74.9695 1.25612 74.06 2.164 73.4319C3.07187 72.8038 4.16154 72.4922 5.26444 72.5453L55.3566 73.933L38.5821 26.7516C38.2156 25.7268 38.1917 24.6109 38.514 23.5714C38.8363 22.5318 39.4874 21.6249 40.3695 20.9867C41.2516 20.3485 42.317 20.0135 43.4058 20.0321C44.4947 20.0506 45.5481 20.4217 46.4079 21.0895L86.1113 51.6358L100.246 3.59781C100.553 2.55898 101.188 1.64727 102.056 0.998828C102.924 0.350384 103.979 0 105.063 0C106.147 0 107.202 0.350384 108.07 0.998828C108.938 1.64727 109.573 2.55898 109.88 3.59781L124.04 51.6358L163.752 21.0895C164.612 20.4263 165.663 20.0592 166.749 20.0432C167.834 20.0273 168.896 20.3633 169.775 21.001C170.653 21.6387 171.301 22.5438 171.622 23.5805C171.942 24.6172 171.918 25.7298 171.553 26.7516L154.752 73.933L204.844 72.5453C205.928 72.5167 206.991 72.839 207.876 73.464C208.761 74.0891 209.42 74.9834 209.755 76.0134C210.089 77.0435 210.081 78.154 209.733 79.1793C209.384 80.2046 208.712 81.0897 207.819 81.7023L166.478 110.004Z" fill="#55423D"/>
</svg>
