<svg xmlns="http://www.w3.org/2000/svg" viewBox="0 0 244.86 256.84"><defs><style>.cls-1{fill:#e4d7d0;}</style></defs><g id="Layer_2" data-name="Layer 2"><g id="Layer_1-2" data-name="Layer 1"><path class="cls-1" d="M194.08,128.42l48.22,33a5.86,5.86,0,0,1-3.47,10.69l-58.44-1.62L200,225.61a5.85,5.85,0,0,1-9.09,6.6l-46.33-35.65-16.52,56.07a5.86,5.86,0,0,1-11.24,0l-16.52-56.07L54,232.21a5.86,5.86,0,0,1-9.1-6.6l19.6-55.08L6,172.15a5.86,5.86,0,0,1-3.47-10.69l48.23-33-48.23-33A5.86,5.86,0,0,1,6,84.69l58.44,1.62L44.87,31.23A5.87,5.87,0,0,1,54,24.62l46.32,35.66L116.81,4.2a5.86,5.86,0,0,1,11.24,0l16.52,56.08L190.9,24.62A5.86,5.86,0,0,1,200,31.23l-19.6,55.08,58.44-1.62a5.86,5.86,0,0,1,3.47,10.69Z"/></g></g></svg>